Coordinates
version=1
nRows=18
nColumns=63
inDegrees=yes

Units are S.I. units (second, meters, Newtons, ...)
If the header above contains a line with 'inDegrees', this indicates whether rotational values are in degrees (yes) or radians (no).

endheader
time	pelvis_tilt	pelvis_list	pelvis_rotation	pelvis_tx	pelvis_ty	pelvis_tz	hip_flexion_r	hip_adduction_r	hip_rotation_r	knee_angle_r	knee_angle_r_beta	ankle_angle_r	subtalar_angle_r	mtp_angle_r	hip_flexion_l	hip_adduction_l	hip_rotation_l	knee_angle_l	knee_angle_l_beta	ankle_angle_l	subtalar_angle_l	mtp_angle_l	L5_S1_Flex_Ext	L5_S1_Lat_Bending	L5_S1_axial_rotation	L4_L5_Flex_Ext	L4_L5_Lat_Bending	L4_L5_axial_rotation	L3_L4_Flex_Ext	L3_L4_Lat_Bending	L3_L4_axial_rotation	L2_L3_Flex_Ext	L2_L3_Lat_Bending	L2_L3_axial_rotation	L1_L2_Flex_Ext	L1_L2_Lat_Bending	L1_L2_axial_rotation	L1_T12_Flex_Ext	L1_T12_Lat_Bending	L1_T12_axial_rotation	Abs_r3	Abs_r2	Abs_r1	Abs_t1	Abs_t2	neck_flexion	neck_bending	neck_rotation	arm_flex_r	arm_add_r	arm_rot_r	elbow_flex_r	pro_sup_r	wrist_flex_r	wrist_dev_r	arm_flex_l	arm_add_l	arm_rot_l	elbow_flex_l	pro_sup_l	wrist_flex_l	wrist_dev_l
3.100000	-6.667813	-26.878082	81.434268	0.280356	0.905412	0.661362	33.951367	-4.039954	-7.117071	15.206899	0.265410	38.163915	16.059594	0.000000	30.583126	2.674848	6.547524	9.138572	0.159498	28.262633	-13.374845	0.000000	0.233378	-0.741458	-1.630919	0.433406	-0.986139	-1.732851	0.383416	-1.802780	-1.732851	0.266727	-1.802780	-1.427054	0.216714	-1.511980	-1.325122	0.133352	-1.148518	-1.223189	1.666993	-8.387517	-9.070681	0.000000	0.000000	28.017466	10.804114	14.203895	51.266248	14.799225	169.743218	-0.779826	0.815920	-59.129408	-15.244467	47.712123	-9.510808	130.485531	1.207390	3.714014	-0.697339	-15.182876
3.116667	-6.725603	-26.300305	80.902568	0.279722	0.907003	0.659170	33.145682	-3.905869	-6.715316	14.889114	0.259864	37.933428	16.079505	0.000000	29.679046	2.591327	6.557817	8.866166	0.154744	28.086015	-13.780189	0.000000	0.228247	-0.739468	-1.521401	0.423878	-0.983492	-1.616489	0.374987	-1.797941	-1.616489	0.260864	-1.797941	-1.331226	0.211950	-1.507922	-1.236138	0.130421	-1.145435	-1.141051	1.630348	-8.365005	-8.461577	0.000000	0.000000	27.935184	10.498890	13.462882	51.600333	14.606407	169.815433	-0.926460	0.859906	-60.161948	-14.863870	45.868038	-8.791615	130.098256	1.121043	3.519192	-0.699084	-16.180146
3.133333	-6.446901	-25.739441	80.774976	0.277794	0.908637	0.656914	32.241335	-3.697847	-6.695756	14.472177	0.252587	37.632447	16.130472	0.000000	28.880020	2.457807	6.902560	8.759777	0.152887	28.002119	-14.232129	0.000000	0.224047	-0.686683	-1.300515	0.416077	-0.913288	-1.381797	0.368086	-1.669600	-1.381797	0.256063	-1.669600	-1.137950	0.208050	-1.400283	-1.056668	0.128020	-1.063672	-0.975386	1.600343	-7.767892	-7.233073	0.000000	0.000000	27.851595	9.615128	11.972986	51.781695	13.275109	167.991569	-0.750742	1.318714	-59.291221	-14.568890	44.089126	-7.100391	130.955525	1.001884	3.281389	-2.204363	-17.322250
3.150000	-5.899196	-25.208367	81.000081	0.274758	0.910295	0.654610	31.273068	-3.454339	-7.005017	13.990211	0.244175	37.293522	16.211736	0.000000	28.188775	2.298314	7.504974	8.802900	0.153640	28.005427	-14.697693	0.000000	0.220346	-0.593046	-0.970599	0.409204	-0.788751	-1.031261	0.362006	-1.441931	-1.031261	0.251833	-1.441931	-0.849274	0.204613	-1.209339	-0.788611	0.125906	-0.918628	-0.727949	1.573907	-6.708652	-5.398178	0.000000	0.000000	27.756957	8.162665	9.653457	51.762500	10.904548	164.572025	-0.282663	1.949132	-56.448276	-14.292166	42.483697	-4.569786	133.053466	0.857164	2.977848	-4.657143	-18.516650
3.166667	-5.135238	-24.702190	81.495921	0.270831	0.911987	0.652272	30.253040	-3.169047	-7.567592	13.455924	0.234850	36.930765	16.331207	0.000000	27.589458	2.100392	8.294929	8.982394	0.156772	28.096261	-15.182900	0.000000	0.216552	-0.464694	-0.547615	0.402158	-0.618043	-0.581841	0.355773	-1.129857	-0.581841	0.247497	-1.129857	-0.479163	0.201090	-0.947604	-0.444937	0.123738	-0.719811	-0.410711	1.546807	-5.256712	-3.045671	0.000000	0.000000	27.659902	6.240876	6.700291	51.571690	7.654694	159.998534	0.515047	2.509909	-51.771116	-14.017246	41.105798	-1.376346	136.348262	0.699962	2.623134	-8.140388	-19.586786
3.183333	-4.235406	-24.170645	82.202267	0.266314	0.913793	0.649925	29.151649	-2.872793	-8.310765	12.890646	0.224984	36.572116	16.473847	0.000000	27.010958	1.882229	9.144585	9.256437	0.161555	28.287923	-15.567859	0.000000	0.206126	-0.314476	-0.053501	0.382796	-0.418253	-0.056845	0.338644	-0.764617	-0.056845	0.235581	-0.764617	-0.046813	0.191408	-0.641279	-0.043469	0.117780	-0.487123	-0.040126	1.472335	-3.557415	-0.297556	0.000000	0.000000	27.568263	3.992192	3.175463	51.096492	3.738722	154.051840	1.592091	3.018026	-45.663811	-13.681985	40.010477	2.259999	140.591607	0.555745	2.233466	-12.411938	-20.557259
3.200000	-3.253058	-23.650253	83.041334	0.261442	0.915680	0.647645	28.040437	-2.556239	-9.159695	12.321649	0.215053	36.198059	16.619402	0.000000	26.484653	1.639747	10.065272	9.603573	0.167614	28.529778	-15.945382	0.000000	0.198586	-0.151516	0.486815	0.368793	-0.201516	0.517241	0.326256	-0.368395	0.517241	0.226964	-0.368395	0.425963	0.184407	-0.308971	0.395537	0.113472	-0.234698	0.365111	1.418477	-1.713975	2.707519	0.000000	0.000000	27.492256	1.504587	-0.780986	50.384252	-0.605133	147.696032	2.952512	3.333626	-39.198586	-13.191665	39.195187	6.132930	145.549418	0.449913	1.837727	-17.383687	-21.332090
3.216667	-2.273131	-23.082760	83.918320	0.256501	0.917698	0.645445	26.886213	-2.244327	-10.023371	11.764252	0.205325	35.831130	16.767134	0.000000	25.932617	1.393654	10.924439	9.984992	0.174271	28.830665	-16.215586	0.000000	0.187796	0.011487	1.062585	0.348756	0.015278	1.128997	0.308530	0.027930	1.128997	0.214632	0.027930	0.929762	0.174387	0.023425	0.863350	0.107307	0.017794	0.796939	1.341407	0.129945	5.909780	0.000000	0.000000	27.437781	-1.112794	-5.047677	49.336640	-5.162491	140.992055	4.467053	3.370567	-32.893147	-12.467094	38.649097	10.067725	151.022241	0.384096	1.455629	-22.905474	-21.911598
3.233333	-1.339612	-22.439762	84.762663	0.251706	0.919873	0.643366	25.684743	-1.939744	-10.832775	11.232136	0.196038	35.473566	16.910796	0.000000	25.316112	1.146907	11.653927	10.373014	0.181043	29.172001	-16.342796	0.000000	0.173087	0.167359	1.648930	0.321441	0.222587	1.751988	0.284365	0.406916	1.751988	0.197822	0.406916	1.442814	0.160729	0.341278	1.339755	0.098902	0.259238	1.236697	1.236347	1.893193	9.170853	0.000000	0.000000	27.408238	-3.750061	-9.398481	48.097672	-9.671771	135.114132	5.970052	2.455980	-26.897697	-11.543609	38.322520	13.872533	156.842679	0.337626	1.118776	-28.842279	-22.272510
3.250000	-0.482775	-21.698532	85.536747	0.247229	0.922225	0.641448	24.429136	-1.656043	-11.552451	10.733392	0.187333	35.133025	17.054732	0.000000	24.605521	0.905246	12.150313	10.746878	0.187568	29.556973	-16.200104	0.000000	0.154162	0.310581	2.216201	0.286294	0.413073	2.354713	0.253272	0.755146	2.354713	0.176191	0.755146	1.939176	0.143155	0.633337	1.800663	0.088088	0.481090	1.662151	1.101162	3.513353	12.325843	0.000000	0.000000	27.426356	-6.290871	-13.564695	46.516445	-13.980623	128.615588	7.500916	2.245661	-21.343882	-10.722826	38.149619	17.359450	162.781743	0.303907	0.884975	-35.070143	-22.466521
3.266667	0.254444	-20.818661	86.191695	0.243218	0.924787	0.639764	23.099380	-1.416508	-12.134136	10.288755	0.179573	34.829258	17.189939	0.000000	23.748276	0.698743	12.464799	11.073677	0.193272	29.901967	-15.923234	0.000000	0.126775	0.434952	2.733118	0.235435	0.578486	2.903938	0.208279	1.057543	2.903938	0.144892	1.057543	2.391478	0.117724	0.886954	2.220658	0.072439	0.673741	2.049839	0.905544	4.920265	15.200783	0.000000	0.000000	27.426155	-8.627106	-17.330663	45.135229	-17.928752	124.336647	8.809048	0.573719	-16.520325	-10.032744	38.091991	20.357724	168.944643	0.262775	0.754554	-41.580088	-22.435183
3.283333	0.858973	-19.824560	86.715492	0.239829	0.927473	0.638279	21.724971	-1.228846	-12.578467	9.913028	0.173015	34.577507	17.319422	0.000000	22.759490	0.526645	12.533703	11.339564	0.197913	30.226993	-15.422231	0.000000	0.094837	0.537125	3.181535	0.176122	0.714377	3.380381	0.155808	1.305967	3.380381	0.108389	1.305967	2.783843	0.088066	1.095306	2.584997	0.054190	0.832007	2.386151	0.677412	6.076070	17.694741	0.000000	0.000000	27.442366	-10.663848	-20.478610	43.499392	-21.387760	119.570141	10.190069	0.445815	-12.582135	-9.350853	38.095280	22.757638	175.027641	0.225809	0.820262	-48.335027	-22.269965
3.300000	1.319143	-18.753535	87.108687	0.237151	0.930147	0.636938	20.347973	-1.108059	-12.916883	9.633101	0.168129	34.418438	17.458971	0.000000	21.662466	0.400826	12.418616	11.525891	0.201165	30.506999	-14.785743	0.000000	0.062666	0.615354	3.529528	0.116378	0.818420	3.750124	0.102955	1.496171	3.750124	0.071621	1.496171	3.088337	0.058192	1.254829	2.867742	0.035808	0.953183	2.647146	0.447620	6.961004	19.630177	0.000000	0.000000	27.479118	-12.295251	-22.761210	41.733604	-24.256277	114.769071	11.706894	1.945423	-9.833254	-8.387483	38.103518	24.438186	180.985278	0.191780	0.917749	-55.681233	-21.972956
3.316667	1.618136	-17.633453	87.344080	0.235282	0.932711	0.635753	19.003441	-1.059766	-13.138314	9.461059	0.165127	34.356906	17.611678	0.000000	20.487117	0.322963	12.081618	11.640665	0.203168	30.757446	-13.995664	0.000000	0.032792	0.666817	3.776884	0.060899	0.886867	4.012939	0.053874	1.621299	4.012939	0.037478	1.621299	3.304773	0.030451	1.359774	3.068718	0.018738	1.032900	2.832663	0.234232	7.543169	21.005894	0.000000	0.000000	27.513853	-13.446935	-24.103204	39.824927	-26.472867	109.774641	13.434429	5.142020	-8.271532	-7.061882	38.116968	25.387939	186.587539	0.163173	1.028759	-63.315972	-21.708941
3.333333	1.779614	-16.489338	87.420033	0.234231	0.935080	0.634701	17.717427	-1.067158	-13.252951	9.413427	0.164295	34.396551	17.770431	0.000000	19.255327	0.274619	11.537576	11.693696	0.204093	30.999596	-13.086488	0.000000	0.006308	0.694020	3.932756	0.011714	0.923047	4.178553	0.010363	1.687441	4.178553	0.007209	1.687441	3.441161	0.005857	1.415246	3.195364	0.003604	1.075037	2.949567	0.045054	7.850895	21.872808	0.000000	0.000000	27.512972	-14.051462	-24.462287	37.739151	-28.018910	104.556708	15.457779	9.792951	-7.908640	-5.164844	38.164209	25.668086	191.481752	0.135435	1.112606	-70.350785	-21.701893
3.350000	1.766987	-15.338675	87.341146	0.234009	0.937178	0.633742	16.509112	-1.175526	-13.259476	9.488657	0.165608	34.546838	17.920403	0.000000	17.980944	0.308502	10.897594	11.671721	0.203710	31.196411	-12.214262	0.000000	-0.014976	0.690185	4.006201	-0.027811	0.917946	4.256589	-0.024603	1.678116	4.256589	-0.017116	1.678116	3.505426	-0.013906	1.407425	3.255039	-0.008557	1.069097	3.004651	-0.106969	7.807511	22.281290	0.000000	0.000000	27.462500	-14.127965	-24.055643	35.441429	-28.883423	98.707802	17.827481	15.629478	-8.407631	-2.969625	38.305451	25.307403	195.117676	0.105298	1.182104	-75.380592	-22.073590
3.366667	1.573793	-14.200667	87.090920	0.234649	0.938942	0.632824	15.407111	-1.385004	-13.125686	9.700989	0.169314	34.812475	18.032384	0.000000	16.682825	0.426701	10.137774	11.576590	0.202050	31.380258	-11.367712	0.000000	-0.031077	0.652618	4.010512	-0.057713	0.867982	4.261169	-0.051056	1.586776	4.261169	-0.035518	1.586776	3.509198	-0.028858	1.330819	3.258541	-0.017757	1.010905	3.007884	-0.221978	7.382547	22.305264	0.000000	0.000000	27.366578	-13.654884	-23.019435	32.921825	-29.103887	91.782309	20.549533	22.274418	-9.095888	-1.114011	38.571615	24.335994	197.221272	0.042716	1.235872	-77.298483	-22.601755
3.383333	1.237559	-13.114084	86.744758	0.236001	0.940315	0.631865	14.436977	-1.684907	-12.855716	10.044619	0.175312	35.188842	18.018006	0.000000	15.406011	0.627398	9.308759	11.421384	0.199341	31.580611	-10.518459	0.000000	-0.040161	0.584597	3.948350	-0.074583	0.777514	4.195122	-0.065981	1.421390	4.195122	-0.045900	1.421390	3.454806	-0.037294	1.192111	3.208034	-0.022948	0.905541	2.961262	-0.286867	6.613080	21.959538	0.000000	0.000000	27.230186	-12.636185	-21.522702	30.198316	-28.778308	83.879841	23.574523	29.392154	-9.208019	0.349067	38.932655	22.838382	197.592068	-0.066336	1.268089	-75.786957	-23.056993
